<mxfile host="app.diagrams.net" modified="2023-04-18T02:16:59.201Z" agent="Mozilla/5.0 (Windows NT 10.0; Win64; x64) AppleWebKit/537.36 (KHTML, like Gecko) Chrome/112.0.0.0 Safari/537.36 Edg/112.0.1722.48" version="21.1.8" etag="fu535vCn9u8YMCwMi3ol" type="github">
  <diagram name="第 1 页" id="HJ9iJAEC8BhTu2dOCQuX">
    <mxGraphModel>
      <root>
        <mxCell id="0" />
        <mxCell id="1" parent="0" />
      </root>
    </mxGraphModel>
  </diagram>
</mxfile>
